<?xml version="1.0" encoding="UTF-8"?>
<svg id="Layer_2" data-name="Layer 2" xmlns="http://www.w3.org/2000/svg" xmlns:xlink="http://www.w3.org/1999/xlink" viewBox="0 0 460.56 97.47">
  <defs>
    <style>
      .cls-1 {
        fill: #49e500;
      }

      .cls-2 {
        fill: #fff;
      }

      .cls-3 {
        clip-path: url(#clippath-1);
      }

      .cls-4 {
        clip-path: url(#clippath);
      }

      .cls-5 {
        fill: none;
      }
    </style>
    <clipPath id="clippath">
      <rect class="cls-5" width="114.67" height="97.47"/>
    </clipPath>
    <clipPath id="clippath-1">
      <path class="cls-5" d="m108.49,48.59l2.55-2.69c4.55-4.82,4.55-12.66,0-17.47L87.72,3.78c-2.26-2.39-5.28-3.71-8.49-3.71-3.22,0-6.24,1.32-8.49,3.71l-2.31,2.44-2.31-2.44C63.85,1.39,60.84.07,57.62.07s-6.24,1.32-8.5,3.71l-2.31,2.44-2.31-2.45C42.24,1.39,39.22.07,36.01.07s-6.24,1.32-8.49,3.71L4.2,28.43c-4.55,4.82-4.55,12.66,0,17.47l2.55,2.69-2.55,2.69c-4.55,4.81-4.55,12.65,0,17.47l23.31,24.65c2.26,2.39,5.28,3.71,8.49,3.71s6.23-1.32,8.49-3.7l2.31-2.44,2.31,2.44c2.26,2.39,5.28,3.7,8.49,3.7s6.24-1.32,8.5-3.7l2.31-2.44,2.3,2.44c2.26,2.39,5.28,3.71,8.5,3.71s6.23-1.32,8.49-3.7l23.31-24.66c4.56-4.82,4.56-12.66,0-17.47l-2.54-2.69Zm-59.37,30.91l-2.31,2.44L15.28,48.59,46.81,15.25l2.31,2.44c.32.34.66.65,1.02.95.57.48,1.18.92,1.82,1.28h0c.69.39,1.41.7,2.15.94.01,0,.02,0,.03.01.74.23,1.51.39,2.28.47.2.02.41.02.61.03.19.01.39.03.59.03.81,0,1.6-.08,2.37-.24,2.31-.48,4.43-1.67,6.13-3.46l2.14-2.26.17-.19,31.54,33.35-31.53,33.35-2.31-2.44c-2.26-2.39-5.28-3.7-8.49-3.7s-6.23,1.31-8.49,3.7ZM75.23,8.04c1.07-1.14,2.49-1.77,3.99-1.77s2.91.63,3.99,1.77l23.32,24.65c2.33,2.47,2.33,6.48,0,8.95l-2.31,2.44-31.54-33.35,2.55-2.69Zm-21.61,0c1.08-1.14,2.49-1.77,3.99-1.77s2.91.63,3.99,1.77l2.54,2.69-2.55,2.69c-.67.71-1.47,1.22-2.35,1.51-.53.17-1.08.26-1.64.26-1.49,0-2.91-.63-3.99-1.77l-2.55-2.69,2.55-2.69ZM8.7,41.64c-2.33-2.46-2.33-6.48,0-8.95l23.31-24.65c1.07-1.14,2.49-1.77,3.99-1.77s2.91.63,3.99,1.77l2.55,2.69-15.77,16.67-15.77,16.68-2.31-2.44Zm27.3,49.27c-1.5,0-2.92-.63-3.99-1.77l-23.31-24.65c-2.33-2.47-2.33-6.48,0-8.95l2.31-2.44,31.53,33.34-2.55,2.7c-1.08,1.14-2.49,1.76-3.99,1.76Zm21.61,0c-1.5,0-2.92-.63-3.99-1.77l-2.55-2.69,2.55-2.69c1.08-1.14,2.49-1.77,3.99-1.77s2.92.63,3.99,1.77l2.55,2.7-2.55,2.69c-1.08,1.14-2.49,1.77-3.99,1.77Zm48.91-26.42l-23.31,24.65c-1.08,1.14-2.49,1.77-3.99,1.77s-2.92-.63-3.99-1.77l-2.55-2.69,31.54-33.35,2.3,2.44c2.33,2.46,2.33,6.48,0,8.95Z"/>
    </clipPath>
  </defs>
  <g id="Layer_1-2" data-name="Layer 1">
    <g>
      <g class="cls-4">
        <g class="cls-3">
          <path class="cls-2" d="m-.33.07v97.04h115.92V.07H-.33Z"/>
        </g>
      </g>
      <path class="cls-1" d="m151.82,67.1c9.75,0,13.81-4.46,15.54-9.19v8.13h9.79v-24.33h-25.46v7.4h14.33c-.73,5-3.4,8.94-11.4,8.94s-11.46-4.73-11.46-14.13c0-10,4.25-14.27,12.19-14.27,6.33,0,9.6,2.88,10.13,6.73h11.73c-.6-8.65-6.58-15.79-21.92-15.79-17.27,0-24.4,10.48-24.4,23.33s6.46,23.19,20.92,23.19Z"/>
      <path class="cls-1" d="m202.15,32.19c-5.4,0-8.15,2.6-9.48,7.33v-6.81h-11.13v33.33h11.46v-13.33c0-6.73,2.33-9.4,7.88-9.4h4.06v-11.13h-2.79Z"/>
      <path class="cls-1" d="m223.99,59.44c-4.25,0-6.85-1.79-7.52-7.13h24.98c.15-.73.21-1.73.21-2.79,0-9.27-4.33-17.88-17.94-17.88-12.79,0-18.38,8-18.38,17.67,0,9.13,4.79,17.79,18.38,17.79,12.15,0,16.67-5.4,17.81-11.13h-11.15c-.92,2-3,3.46-6.4,3.46Zm-.13-20.25c4.46,0,6.52,2.27,6.94,6.46h-14.21c.73-4.79,3.15-6.46,7.27-6.46Z"/>
      <path class="cls-1" d="m261.58,59.44c-4.25,0-6.85-1.79-7.52-7.13h24.98c.15-.73.21-1.73.21-2.79,0-9.27-4.33-17.88-17.94-17.88-12.79,0-18.38,8-18.38,17.67,0,9.13,4.79,17.79,18.38,17.79,12.15,0,16.67-5.4,17.81-11.13h-11.15c-.92,2-3,3.46-6.4,3.46Zm-.13-20.25c4.46,0,6.52,2.27,6.94,6.46h-14.21c.73-4.79,3.15-6.46,7.27-6.46Z"/>
      <path class="cls-1" d="m305.16,31.65c-5.94,0-9.79,2.88-12,7.27v-6.21h-11.46v33.33h11.46v-15.67c0-6.52,2.67-9.46,7.27-9.46,4,0,5.79,2.4,5.79,6.79v18.33h11.48v-20.25c0-8.75-3.81-14.15-12.54-14.15Z"/>
      <path class="cls-2" d="m338.61,59.44c-4.25,0-6.85-1.79-7.52-7.13h24.98c.15-.73.21-1.73.21-2.79,0-9.27-4.33-17.88-17.94-17.88-12.79,0-18.38,8-18.38,17.67,0,9.13,4.79,17.79,18.38,17.79,12.15,0,16.67-5.4,17.81-11.13h-11.15c-.92,2-3,3.46-6.4,3.46Zm-.13-20.25c4.46,0,6.52,2.27,6.94,6.46h-14.21c.73-4.79,3.15-6.46,7.27-6.46Z"/>
      <path class="cls-2" d="m379.34,32.19c-5.4,0-8.15,2.6-9.48,7.33v-6.81h-11.13v33.33h11.46v-13.33c0-6.73,2.33-9.4,7.88-9.4h4.06v-11.13h-2.79Z"/>
      <path class="cls-2" d="m409.66,32.71v4c-2.27-3.13-5.94-4.98-11.4-4.98-11,0-15.48,7.65-15.48,16.65s4.48,16.67,15.48,16.67c5.46,0,9.13-1.88,11.4-5.06v5.94c0,4.46-2.33,6.33-7.42,6.33s-7.06-2-7.46-4.94h-11.13c.46,7.19,5.94,12.79,18,12.79,14.06,0,19.46-5.21,19.46-16v-31.4h-11.46Zm-7.48,23.94c-5.73,0-7.92-2.27-7.92-8.06s2.19-8,7.92-8,7.48,2.67,7.48,8-1.88,8.06-7.48,8.06Z"/>
      <path class="cls-2" d="m449.71,32.71l-6.15,19.33-1.73,6.21-1.94-6.21-6.46-19.33h-11.67l10.79,32.4h7.27l-1.73,5.21h-14.33v9.06h9.6c10.46,0,13.92-4.6,16.58-13.27l10.6-33.4h-10.85Z"/>
    </g>
  </g>
</svg>